<svg xmlns="http://www.w3.org/2000/svg" viewBox="0 0 600.95 575.72"><defs><style>.cls-1{fill:#0c418d;}.cls-2{fill:#54ae1c;}.cls-3{stroke:#000;stroke-miterlimit:10;stroke-width:0.5px;}</style></defs><g id="Layer_2" data-name="Layer 2"><g id="Layer_1-2" data-name="Layer 1"><path class="cls-1" d="M439.28,200.62c-7.08-13.64-19.85-19.56-34.4-14.79-9,3-17.2,8.42-25.74,12.79-1.87,1-3.65,2.1-5.47,3.15l-1.58-1.6c1.78-3,3.35-6.17,5.36-9,19.73-27.7,35.58-57.2,41-91.24,5.12-32.12-1.07-61.67-21.78-87.44-2.63-3.28-5.73-6.17-8.62-9.23l-1.27.93c.89,1.81,1.64,3.7,2.7,5.4,17,27.16,20.06,56,10.4,86.34-6.36,20-16.53,38.16-27,56.2-14.67,25.37-30.07,50.36-40.45,78-12.58,33.45-15.2,67.36-5.23,102,2.41,8.39,5.53,16.35,11.16,23.22,10.31,12.56,23.31,16.14,38.38,10.07,10.56-4.25,19.17-11.36,26.74-19.67C427,319.91,442,289.82,447.87,255.46A85.29,85.29,0,0,0,439.28,200.62ZM432.89,261c-2.17,14.27-4.49,28.65-8.52,42.47a85,85,0,0,1-26.49,41c-17.26,14.85-36.59,10.32-45.75-10.61-6.38-14.6-8.16-30.12-8.57-50.85a106.08,106.08,0,0,1,34.84-76.66c13.68-12.52,32.57-9.36,42.63,6.19C430.56,227.34,435.56,243.44,432.89,261Z"/><path class="cls-1" d="M306.4,177.3c-2.43-.69-5-1-7.46-1.45l-1.18,2c6.45,3.46,13.35,6.48,13.35,15.09,0,7.15,0,14.23-4.11,22.14-1.43-2.91-2.67-4.75-3.27-6.77-5.31-17.73-20.87-27.13-38.72-22.4a51.79,51.79,0,0,0-17.36,8.32c-36.44,27.21-56.61,63.81-61.23,108.94-1.49,14.6.06,29,5.76,42.68,6.62,15.86,23.39,31.67,46.87,18.83,9.78-5.35,18.11-13.36,27.16-20.07a28.23,28.23,0,0,1,4.53-2.28c.63,1.45,1.74,2.88,1.81,4.36.86,18.09,18.14,23.28,35.43,18.88.17,0,.21-.58.62-1.83-2.68-1.15-5.48-2.28-8.23-3.54-11.11-5.08-15.37-12.6-12.81-24.52,1.88-8.75,4.87-17.26,7.36-25.89,7.42-25.75,15.3-51.38,22-77.31a168.36,168.36,0,0,0,5.18-35.38C322.61,185.33,317.84,180.54,306.4,177.3ZM268.46,332.74c-6.6,8.82-15.17,15.28-26.52,17.4-7.78,1.45-14.38-.15-20.38-5.35-11.61-10.06-16.59-23.42-17.51-38-1.75-27.66,3.94-54,18-78.08a49,49,0,0,1,20.15-18.88c18.4-9.62,36.34-3,44.1,16.29,4.88,12.1,6.23,24.78,6.48,42.13C292.28,289.49,283.69,312.37,268.46,332.74Z"/><path class="cls-1" d="M570.92,177.35a11.45,11.45,0,0,0-2.36-.78c-1.67-.06-3.35.11-5,.18,1.14,1.35,2,3.35,3.48,3.93,4.71,1.87,7.65,5.2,7.79,10a157.73,157.73,0,0,1-1,18.8c-.12,1.32-1.67,2.5-2.56,3.74a29.42,29.42,0,0,1-2.75-3.61c-2.54-4.64-4.3-9.88-7.54-14-10.76-13.49-30.08-15.12-46-3.78-37.26,26.64-58.71,62.85-63.85,108.38-1.84,16.37-.85,32.62,6.26,48,8.72,18.86,26.78,26.33,45,16.78,10.14-5.31,18.72-13.59,28.05-20.46a36.82,36.82,0,0,1,4.55-2.46,21.08,21.08,0,0,1,1.48,4.49c1.56,16.39,21.34,26.53,37.69,17.83-3.79-1.66-6.61-2.83-9.38-4.1-10.45-4.8-14.15-10.63-13.24-22a69,69,0,0,1,2.76-13.66c8.83-30.35,18.22-60.54,26.52-91a181.66,181.66,0,0,0,5.65-36.32C587.24,186,581.87,180.42,570.92,177.35Zm-36,152.5c-6.51,9.45-14.94,16.86-26.63,19.87-9.92,2.56-17.89-.08-25-7.18-8.49-8.54-12.59-19.12-14.53-30.61-1-5.87-.85-11.93-1.25-18.2,2.58-24.28,6.62-48.33,21.48-69,6.26-8.71,14.53-15,25.1-18,14-3.84,25.73,1,33.29,13.43,6.15,10.14,8,21.4,9,32.9C559.11,281.47,550.81,306.82,535,329.85Z"/><path class="cls-2" d="M158.37,451.7a128.36,128.36,0,0,1-29,54.62c-21.92,24.78-49.52,41.18-79.72,53.47-13.7,5.57-27.86,10-41.87,14.78-2.33.8-4.94.79-7.42,1.15C.25,575.14.12,574.57,0,574c6.21-2,12.45-3.94,18.63-6C65,552.11,102.5,525.29,125.11,480.73c11.42-22.51,17.72-46.39,17.14-72.11-.72-32.05-4.15-63.77-8.8-95.41-3-20.43-6.16-40.83-9.17-61.25-1-6.62.2-8.08,6.91-9.53,12.07-2.6,12.41-2.67,14.77,9.23,3,15.34,5.83,30.75,8,46.22,3,21.07,6.08,42.17,7.91,63.36C164.54,391.48,165.73,421.9,158.37,451.7Z"/><path class="cls-2" d="M270.45,24l-.91,1.32c-1.52-.75-3.09-1.42-4.54-2.27-27.72-16.2-57.62-12.2-80.56,10.3-17.77,17.42-28.12,39-36.12,62A216.49,216.49,0,0,0,136.77,180c.42,7,1.32,13.92,2.08,20.88.47,4.28-1.15,7.08-5.37,8.28-2.4.68-4.78,1.42-7.18,2.09-6.28,1.76-7.66,1.15-8.15-5.24-3.46-44.23-2.19-88.1,14.75-129.88,11.68-28.81,30.21-52.52,57.8-68,25-14,49.21-9,71.09,8.15C264.83,18.66,267.57,21.43,270.45,24Z"/><path class="cls-1" d="M254.05,130.9c-10.43,29.44-24.56,56.5-49.57,76.5-17.85,14.27-38.83,21.49-60.55,27.24-18.65,5-37.53,9.37-55.67,15.8C56,261.86,33.87,284.92,18.79,315.16c-1.78,3.57-3.41,7.21-5.24,10.76a33.69,33.69,0,0,1-2.67,3.79l-1.22-.5a21,21,0,0,1,.48-4.6c9-26.4,20.5-51.34,40.69-71.34,15.67-15.52,34.72-25.1,55.64-31.12,18.55-5.34,37.35-9.81,55.86-15.28,36.34-10.73,63.87-32.86,82.83-65.62,2.69-4.65,5-9.54,7.4-14.32l1.54.64C254.1,128.68,254.41,129.91,254.05,130.9Z"/><path class="cls-3" d="M218.23,397.75h-9.4v6.15h7.86a2.29,2.29,0,0,1,1.63.5,1.9,1.9,0,0,1,0,2.66,2.34,2.34,0,0,1-1.62.49h-7.86v7.92a3.23,3.23,0,0,1-.66,2.23,2.39,2.39,0,0,1-3.44,0,3.28,3.28,0,0,1-.67-2.23V397a4.15,4.15,0,0,1,.31-1.71,1.91,1.91,0,0,1,.95-1A4,4,0,0,1,207,394h11.24a2.42,2.42,0,0,1,1.69.51,1.93,1.93,0,0,1,0,2.72A2.38,2.38,0,0,1,218.23,397.75Z"/><path class="cls-3" d="M239.54,397.75H228.8v5.9h9.89a2.34,2.34,0,0,1,1.63.5,1.7,1.7,0,0,1,.54,1.32,1.77,1.77,0,0,1-.53,1.33,2.24,2.24,0,0,1-1.64.52H228.8v6.84h11.11a2.39,2.39,0,0,1,1.7.53,1.85,1.85,0,0,1,.57,1.42,1.8,1.8,0,0,1-.57,1.38,2.39,2.39,0,0,1-1.7.53H227a3,3,0,0,1-2.24-.7A3.22,3.22,0,0,1,224,415V397a4.16,4.16,0,0,1,.3-1.71,1.93,1.93,0,0,1,1-1A4,4,0,0,1,227,394h12.59a2.45,2.45,0,0,1,1.7.51,2,2,0,0,1,0,2.72A2.4,2.4,0,0,1,239.54,397.75Z"/><path class="cls-3" d="M248.92,394h6.22a16.31,16.31,0,0,1,4.16.46,7.54,7.54,0,0,1,3.14,1.72q3.69,3.21,3.68,9.77a19.19,19.19,0,0,1-.37,3.94,11.43,11.43,0,0,1-1.14,3.23,10,10,0,0,1-2,2.56,8.45,8.45,0,0,1-2.07,1.39,9.2,9.2,0,0,1-2.42.74,18.36,18.36,0,0,1-2.92.21H249a3.8,3.8,0,0,1-2-.4,1.84,1.84,0,0,1-.86-1.13,7.09,7.09,0,0,1-.2-1.89V397a3.17,3.17,0,0,1,.69-2.28A3,3,0,0,1,248.92,394Zm1.85,3.85v16.31h3.61c.79,0,1.41,0,1.86-.07a5.35,5.35,0,0,0,1.4-.33,3.64,3.64,0,0,0,1.25-.74q2.4-2.06,2.4-7.11a10.65,10.65,0,0,0-1.05-5.32,4.79,4.79,0,0,0-2.6-2.26,12.64,12.64,0,0,0-3.72-.48Z"/><path class="cls-3" d="M285.83,397.75H275.08v5.9H285a2.34,2.34,0,0,1,1.63.5,1.7,1.7,0,0,1,.54,1.32,1.77,1.77,0,0,1-.53,1.33,2.26,2.26,0,0,1-1.64.52h-9.9v6.84H286.2a2.36,2.36,0,0,1,1.69.53,1.85,1.85,0,0,1,.57,1.42,1.8,1.8,0,0,1-.57,1.38,2.36,2.36,0,0,1-1.69.53h-13a3,3,0,0,1-2.24-.7,3.17,3.17,0,0,1-.69-2.28V397a4.15,4.15,0,0,1,.31-1.71,1.91,1.91,0,0,1,.95-1,4,4,0,0,1,1.67-.3h12.59a2.42,2.42,0,0,1,1.69.51,1.93,1.93,0,0,1,0,2.72A2.38,2.38,0,0,1,285.83,397.75Z"/><path class="cls-3" d="M298.66,407.75H297v7.72a3.24,3.24,0,0,1-.66,2.24,2.22,2.22,0,0,1-1.72.72,2.15,2.15,0,0,1-1.76-.75,3.37,3.37,0,0,1-.63-2.21V397a3.17,3.17,0,0,1,.69-2.28,3,3,0,0,1,2.23-.7h7.76a21.73,21.73,0,0,1,2.75.14,6.79,6.79,0,0,1,2.05.56,6,6,0,0,1,3.26,3.42,7.07,7.07,0,0,1,.44,2.48,6.1,6.1,0,0,1-1.49,4.3,8.41,8.41,0,0,1-4.5,2.27,8.8,8.8,0,0,1,2.42,2,20.81,20.81,0,0,1,2.07,2.86,22.51,22.51,0,0,1,1.41,2.73,5.43,5.43,0,0,1,.5,1.68,1.7,1.7,0,0,1-.29.94,2.07,2.07,0,0,1-.81.74,2.54,2.54,0,0,1-1.19.27,2.31,2.31,0,0,1-1.35-.38,3.52,3.52,0,0,1-.94-1c-.26-.39-.62-1-1.07-1.73l-1.91-3.25a18.16,18.16,0,0,0-1.84-2.72,4.57,4.57,0,0,0-1.65-1.28A5.49,5.49,0,0,0,298.66,407.75Zm2.73-10.1H297v6.61h4.27a11.3,11.3,0,0,0,2.89-.31,3.33,3.33,0,0,0,1.79-1,3,3,0,0,0,.62-2,3.1,3.1,0,0,0-.5-1.76,3,3,0,0,0-1.38-1.14A9.71,9.71,0,0,0,301.39,397.65Z"/><path class="cls-3" d="M331,415.3l-1.13-3h-9.57l-1.13,3.08A11,11,0,0,1,318,417.8a1.78,1.78,0,0,1-1.53.63,2.2,2.2,0,0,1-1.59-.67,2.07,2.07,0,0,1-.69-1.52,3.73,3.73,0,0,1,.16-1c.11-.35.29-.84.53-1.46l6-15.6c.17-.45.37-1,.61-1.61a8.49,8.49,0,0,1,.78-1.57,3.24,3.24,0,0,1,1.07-1,3.79,3.79,0,0,1,3.31,0,3.43,3.43,0,0,1,1.08,1,7.42,7.42,0,0,1,.69,1.31c.18.46.42,1.08.71,1.86l6.15,15.5a8.05,8.05,0,0,1,.73,2.57,2.16,2.16,0,0,1-.69,1.54,2.21,2.21,0,0,1-1.64.69,2.07,2.07,0,0,1-1-.2,2,2,0,0,1-.67-.56,5,5,0,0,1-.59-1.08C331.3,416.1,331.12,415.67,331,415.3Zm-9.45-6.67h7L325,398.72Z"/><path class="cls-3" d="M352,398h-5.21v17.46a3.23,3.23,0,0,1-.66,2.23,2.15,2.15,0,0,1-1.7.73,2.19,2.19,0,0,1-1.72-.73,3.23,3.23,0,0,1-.67-2.23V398H336.8a2.58,2.58,0,0,1-1.81-.55,2.08,2.08,0,0,1,0-2.92,2.66,2.66,0,0,1,1.79-.54H352a2.62,2.62,0,0,1,1.83.55,2,2,0,0,1,0,2.91A2.65,2.65,0,0,1,352,398Z"/><path class="cls-3" d="M357.43,415.47V396.54a3.31,3.31,0,0,1,.65-2.22,2.19,2.19,0,0,1,1.71-.73,2.22,2.22,0,0,1,1.74.73,3.2,3.2,0,0,1,.67,2.22v18.93a3.28,3.28,0,0,1-.67,2.23,2.38,2.38,0,0,1-3.44,0A3.27,3.27,0,0,1,357.43,415.47Z"/><path class="cls-3" d="M377.89,393.59a12.41,12.41,0,0,1,6.29,1.51,9.75,9.75,0,0,1,4,4.31A15,15,0,0,1,389.5,406a16.4,16.4,0,0,1-.74,5.06,10.86,10.86,0,0,1-2.22,3.95,9.55,9.55,0,0,1-3.63,2.56,12.83,12.83,0,0,1-4.93.88,12.65,12.65,0,0,1-4.94-.91,9.8,9.8,0,0,1-3.65-2.56,11.09,11.09,0,0,1-2.21-4,16.67,16.67,0,0,1-.74-5,15.89,15.89,0,0,1,.78-5.09,10.85,10.85,0,0,1,2.25-3.93,9.8,9.8,0,0,1,3.6-2.48A12.59,12.59,0,0,1,377.89,393.59ZM384.67,406a11.45,11.45,0,0,0-.84-4.58,6.3,6.3,0,0,0-2.39-2.92,6.43,6.43,0,0,0-3.55-1,6.21,6.21,0,0,0-2.64.55,5.69,5.69,0,0,0-2.09,1.59,7.45,7.45,0,0,0-1.38,2.68,12.28,12.28,0,0,0-.51,3.67,12.54,12.54,0,0,0,.51,3.7,7.42,7.42,0,0,0,1.43,2.74,5.9,5.9,0,0,0,2.12,1.63,6.27,6.27,0,0,0,2.62.54,6.16,6.16,0,0,0,5.81-3.81A11.42,11.42,0,0,0,384.67,406Z"/><path class="cls-3" d="M399.79,396.51,409,410.67v-14.3a3.21,3.21,0,0,1,.59-2.09,2,2,0,0,1,1.58-.69,2,2,0,0,1,1.63.69,3.21,3.21,0,0,1,.59,2.09v18.9c0,2.11-.86,3.16-2.57,3.16a3.53,3.53,0,0,1-1.16-.18,3.08,3.08,0,0,1-1-.6,6.56,6.56,0,0,1-.84-1l-.77-1.12-8.94-14v14.08a3,3,0,0,1-.63,2.08,2.2,2.2,0,0,1-3.23,0,3.15,3.15,0,0,1-.61-2.07V397.11a5.39,5.39,0,0,1,.26-1.85,2.6,2.6,0,0,1,1-1.2,2.62,2.62,0,0,1,3.43.31,6,6,0,0,1,.71.94C399.29,395.69,399.54,396.09,399.79,396.51Z"/><path class="cls-3" d="M437.15,393.59a12.39,12.39,0,0,1,6.29,1.51,9.75,9.75,0,0,1,4,4.31,15,15,0,0,1,1.35,6.57A16.1,16.1,0,0,1,448,411a11,11,0,0,1-2.21,3.95,9.71,9.71,0,0,1-3.63,2.56,12.9,12.9,0,0,1-4.93.88,12.73,12.73,0,0,1-4.95-.91,9.8,9.8,0,0,1-3.65-2.56,10.92,10.92,0,0,1-2.2-4,16.36,16.36,0,0,1-.75-5,15.89,15.89,0,0,1,.78-5.09,10.87,10.87,0,0,1,2.26-3.93,9.68,9.68,0,0,1,3.59-2.48A12.63,12.63,0,0,1,437.15,393.59ZM443.93,406a11.45,11.45,0,0,0-.84-4.58,6.28,6.28,0,0,0-2.38-2.92,6.49,6.49,0,0,0-3.56-1,6.27,6.27,0,0,0-2.64.55,5.69,5.69,0,0,0-2.09,1.59,7.78,7.78,0,0,0-1.38,2.68,12.28,12.28,0,0,0-.51,3.67,12.54,12.54,0,0,0,.51,3.7,7.57,7.57,0,0,0,1.43,2.74,6,6,0,0,0,2.12,1.63,6.59,6.59,0,0,0,6-.39,6.38,6.38,0,0,0,2.44-2.88A11.26,11.26,0,0,0,443.93,406Z"/><path class="cls-3" d="M466.91,397.75h-9.39v6.15h7.85a2.29,2.29,0,0,1,1.63.5,1.71,1.71,0,0,1,.54,1.33,1.69,1.69,0,0,1-.55,1.33,2.33,2.33,0,0,1-1.62.49h-7.85v7.92a3.23,3.23,0,0,1-.67,2.23,2.39,2.39,0,0,1-3.44,0,3.28,3.28,0,0,1-.66-2.23V397a4.16,4.16,0,0,1,.3-1.71,1.89,1.89,0,0,1,1-1,3.94,3.94,0,0,1,1.66-.3h11.24a2.41,2.41,0,0,1,1.69.51,1.93,1.93,0,0,1,0,2.72A2.36,2.36,0,0,1,466.91,397.75Z"/><path class="cls-3" d="M496,415.3l-1.13-3H485.3l-1.12,3.08a10.87,10.87,0,0,1-1.13,2.43,1.77,1.77,0,0,1-1.52.63,2.2,2.2,0,0,1-1.59-.67,2.07,2.07,0,0,1-.69-1.52,3.38,3.38,0,0,1,.16-1c.1-.35.28-.84.53-1.46l6-15.6.62-1.61a8.51,8.51,0,0,1,.77-1.57,3.24,3.24,0,0,1,1.07-1,3.79,3.79,0,0,1,3.31,0,3.22,3.22,0,0,1,1.08,1,7.42,7.42,0,0,1,.69,1.31c.19.46.42,1.08.71,1.86l6.16,15.5a8,8,0,0,1,.72,2.57,2.19,2.19,0,0,1-.68,1.54,2.25,2.25,0,0,1-1.65.69,2,2,0,0,1-1-.2,2,2,0,0,1-.68-.56,4.67,4.67,0,0,1-.58-1.08Q496.23,415.86,496,415.3Zm-9.45-6.67h7L490,398.72Z"/><path class="cls-3" d="M522.48,410.81a7.19,7.19,0,0,1-1.1,3.92,7.36,7.36,0,0,1-3.22,2.72,11.79,11.79,0,0,1-5,1,11.1,11.1,0,0,1-5.75-1.34,7.76,7.76,0,0,1-2.61-2.58,6,6,0,0,1-1-3.14,2.13,2.13,0,0,1,.6-1.52,2,2,0,0,1,1.54-.63,1.8,1.8,0,0,1,1.27.49,4,4,0,0,1,.9,1.46,9,9,0,0,0,1,1.92,3.84,3.84,0,0,0,1.47,1.27,5.37,5.37,0,0,0,2.49.5,5.53,5.53,0,0,0,3.44-1,3.06,3.06,0,0,0,1.33-2.51,2.7,2.7,0,0,0-.72-1.95,4.63,4.63,0,0,0-1.85-1.13,27.53,27.53,0,0,0-3-.84,21.49,21.49,0,0,1-4.25-1.42,6.94,6.94,0,0,1-2.72-2.21,5.87,5.87,0,0,1-1-3.48,6.07,6.07,0,0,1,1.06-3.53,6.74,6.74,0,0,1,3.07-2.36,12.18,12.18,0,0,1,4.72-.83,11.32,11.32,0,0,1,3.75.55,7.82,7.82,0,0,1,2.63,1.46,6.09,6.09,0,0,1,1.52,1.9,4.51,4.51,0,0,1,.48,1.95,2.34,2.34,0,0,1-.6,1.57,1.92,1.92,0,0,1-1.5.7,1.72,1.72,0,0,1-1.25-.42,5.82,5.82,0,0,1-.92-1.37,6.19,6.19,0,0,0-1.54-2.12,4.43,4.43,0,0,0-2.89-.76,4.94,4.94,0,0,0-3,.82,2.42,2.42,0,0,0-1.13,2,2.08,2.08,0,0,0,.38,1.25,3.27,3.27,0,0,0,1.06.9,7.08,7.08,0,0,0,1.37.59c.46.14,1.22.35,2.28.62a35.89,35.89,0,0,1,3.6,1,10.88,10.88,0,0,1,2.75,1.4,5.72,5.72,0,0,1,1.77,2.07A6.8,6.8,0,0,1,522.48,410.81Z"/><path class="cls-3" d="M526.72,415.47V396.54a3.25,3.25,0,0,1,.66-2.22,2.18,2.18,0,0,1,1.7-.73,2.22,2.22,0,0,1,1.74.73,3.15,3.15,0,0,1,.67,2.22v18.93a3.23,3.23,0,0,1-.67,2.23,2.22,2.22,0,0,1-1.74.73,2.18,2.18,0,0,1-1.69-.74A3.22,3.22,0,0,1,526.72,415.47Z"/><path class="cls-3" d="M551.89,415.3l-1.13-3h-9.57l-1.12,3.08a10.87,10.87,0,0,1-1.13,2.43,1.77,1.77,0,0,1-1.52.63,2.2,2.2,0,0,1-1.59-.67,2.07,2.07,0,0,1-.69-1.52,3.38,3.38,0,0,1,.16-1c.1-.35.28-.84.53-1.46l6-15.6.62-1.61a8.51,8.51,0,0,1,.77-1.57,3.18,3.18,0,0,1,1.08-1,3.77,3.77,0,0,1,3.3,0,3.22,3.22,0,0,1,1.08,1,7.42,7.42,0,0,1,.69,1.31q.29.69.72,1.86l6.15,15.5a8,8,0,0,1,.72,2.57,2.19,2.19,0,0,1-.68,1.54,2.25,2.25,0,0,1-1.65.69,2,2,0,0,1-1-.2,2,2,0,0,1-.68-.56,4.67,4.67,0,0,1-.58-1.08Q552.12,415.86,551.89,415.3Zm-9.45-6.67h7l-3.55-9.91Z"/><path class="cls-3" d="M566.7,396.51l9.17,14.16v-14.3a3.22,3.22,0,0,1,.58-2.09,2,2,0,0,1,1.58-.69,2,2,0,0,1,1.63.69,3.21,3.21,0,0,1,.59,2.09v18.9c0,2.11-.86,3.16-2.57,3.16a3.43,3.43,0,0,1-1.15-.18,3,3,0,0,1-1-.6,6,6,0,0,1-.83-1c-.26-.37-.52-.74-.77-1.12l-9-14v14.08a3,3,0,0,1-.63,2.08,2,2,0,0,1-1.6.7,2,2,0,0,1-1.62-.71,3.1,3.1,0,0,1-.62-2.07V397.11a5.39,5.39,0,0,1,.26-1.85,2.8,2.8,0,0,1,2.54-1.67,2.46,2.46,0,0,1,1.9.78,6,6,0,0,1,.71.94Z"/><path class="cls-3" d="M203.16,458.3H196a2.94,2.94,0,0,1-2.22-.71,3.23,3.23,0,0,1-.67-2.27V437.26a3.23,3.23,0,0,1,.68-2.29,3,3,0,0,1,2.21-.7h7.63a17.56,17.56,0,0,1,2.92.22,6.05,6.05,0,0,1,3.7,2.1,5.86,5.86,0,0,1,1,1.72,5.8,5.8,0,0,1,.34,2,5.52,5.52,0,0,1-3.53,5.27c3.09,1,4.64,3,4.64,5.87a6.75,6.75,0,0,1-1,3.63,6.11,6.11,0,0,1-2.73,2.38,9.17,9.17,0,0,1-2.48.65A23.86,23.86,0,0,1,203.16,458.3Zm-5.31-20.37v6.21h4.37a8.58,8.58,0,0,0,2.75-.34,2.69,2.69,0,0,0,1.49-1.31,3.11,3.11,0,0,0,.4-1.55,2.39,2.39,0,0,0-1.27-2.41,9.52,9.52,0,0,0-3.87-.6Zm5,9.7h-5v7H203c3.22,0,4.84-1.19,4.84-3.56a2.92,2.92,0,0,0-1.26-2.64A6.85,6.85,0,0,0,202.81,447.63Z"/><path class="cls-3" d="M217,455.74V436.81a3.22,3.22,0,0,1,.66-2.21,2.19,2.19,0,0,1,1.7-.74,2.26,2.26,0,0,1,1.74.73,3.19,3.19,0,0,1,.67,2.22v18.93a3.2,3.2,0,0,1-.67,2.23,2.23,2.23,0,0,1-1.74.74,2.16,2.16,0,0,1-1.69-.75A3.19,3.19,0,0,1,217,455.74Z"/><path class="cls-3" d="M237.42,433.86a12.39,12.39,0,0,1,6.29,1.52,9.75,9.75,0,0,1,4,4.31,14.92,14.92,0,0,1,1.35,6.56,16.17,16.17,0,0,1-.74,5.07,11.08,11.08,0,0,1-2.21,3.95,9.8,9.8,0,0,1-3.63,2.55,12.9,12.9,0,0,1-4.93.89,12.73,12.73,0,0,1-5-.91,9.88,9.88,0,0,1-3.64-2.56,11.07,11.07,0,0,1-2.21-4,16.31,16.31,0,0,1-.75-5,15.83,15.83,0,0,1,.78-5.08,10.87,10.87,0,0,1,2.26-3.93,9.68,9.68,0,0,1,3.59-2.48A12.63,12.63,0,0,1,237.42,433.86Zm6.78,12.36a11.4,11.4,0,0,0-.84-4.57,6.36,6.36,0,0,0-2.38-2.93,6.77,6.77,0,0,0-6.2-.44,5.91,5.91,0,0,0-2.09,1.6,7.78,7.78,0,0,0-1.38,2.68,12.26,12.26,0,0,0-.51,3.66,12.61,12.61,0,0,0,.51,3.71,7.65,7.65,0,0,0,1.43,2.74,6,6,0,0,0,2.12,1.63,6.59,6.59,0,0,0,6-.39,6.41,6.41,0,0,0,2.44-2.89A11.26,11.26,0,0,0,244.2,446.22Z"/><path class="cls-3" d="M267.15,438.29H262v17.45a3.26,3.26,0,0,1-.66,2.24,2.18,2.18,0,0,1-1.7.73,2.22,2.22,0,0,1-1.73-.74,3.2,3.2,0,0,1-.67-2.23V438.29H252a2.59,2.59,0,0,1-1.82-.55,1.91,1.91,0,0,1-.59-1.45,1.86,1.86,0,0,1,.62-1.47,2.59,2.59,0,0,1,1.79-.55h15.16a2.65,2.65,0,0,1,1.84.56,1.9,1.9,0,0,1,.6,1.46,1.85,1.85,0,0,1-.61,1.45A2.65,2.65,0,0,1,267.15,438.29Z"/><path class="cls-3" d="M287.93,438H277.19v5.9h9.89a2.29,2.29,0,0,1,1.63.5,1.7,1.7,0,0,1,.54,1.32,1.79,1.79,0,0,1-.53,1.33,2.24,2.24,0,0,1-1.64.52h-9.89v6.83H288.3a2.39,2.39,0,0,1,1.7.54,2,2,0,0,1,0,2.8,2.44,2.44,0,0,1-1.7.53h-13a3,3,0,0,1-2.24-.7,3.22,3.22,0,0,1-.68-2.28V437.26a4.24,4.24,0,0,1,.3-1.72,2,2,0,0,1,1-1,4,4,0,0,1,1.66-.31h12.59a2.45,2.45,0,0,1,1.7.52,2,2,0,0,1,0,2.72A2.4,2.4,0,0,1,287.93,438Z"/><path class="cls-3" d="M314.42,450.71a6.57,6.57,0,0,1-.56,2.49,9,9,0,0,1-4.78,4.71,10.78,10.78,0,0,1-4.3.8,14.81,14.81,0,0,1-3.39-.36,9,9,0,0,1-5.06-3.13,12.3,12.3,0,0,1-1.59-2.53,13.46,13.46,0,0,1-1-3,16.63,16.63,0,0,1-.33-3.38,15.23,15.23,0,0,1,.83-5.19,11.11,11.11,0,0,1,2.37-3.93,10.32,10.32,0,0,1,3.61-2.48,11.53,11.53,0,0,1,4.42-.86,10.79,10.79,0,0,1,5.09,1.17,9.18,9.18,0,0,1,3.42,2.87,5.74,5.74,0,0,1,1.19,3.24,2.13,2.13,0,0,1-.58,1.48,1.82,1.82,0,0,1-1.39.64,1.91,1.91,0,0,1-1.38-.45,6.31,6.31,0,0,1-1-1.52,7.29,7.29,0,0,0-2.19-2.67,5.29,5.29,0,0,0-3.11-.89A5.58,5.58,0,0,0,300,440a10.49,10.49,0,0,0-1.74,6.47,12.35,12.35,0,0,0,.77,4.67,5.82,5.82,0,0,0,2.18,2.77,5.91,5.91,0,0,0,3.31.92,5.7,5.7,0,0,0,3.48-1,6.23,6.23,0,0,0,2.14-3.05,5.33,5.33,0,0,1,.76-1.55,1.68,1.68,0,0,1,1.44-.6,2,2,0,0,1,1.47.6A2.08,2.08,0,0,1,314.42,450.71Z"/><path class="cls-3" d="M323.51,436.81v6.89H333.8v-6.89a3.28,3.28,0,0,1,.65-2.21,2.18,2.18,0,0,1,1.71-.74,2.26,2.26,0,0,1,1.74.73,3.19,3.19,0,0,1,.67,2.22v18.93a3.2,3.2,0,0,1-.67,2.23,2.26,2.26,0,0,1-1.74.74,2.15,2.15,0,0,1-1.72-.75,3.34,3.34,0,0,1-.64-2.22v-8.08H323.51v8.08a3.2,3.2,0,0,1-.68,2.23,2.25,2.25,0,0,1-1.73.74,2.15,2.15,0,0,1-1.72-.75,3.29,3.29,0,0,1-.64-2.22V436.81a3.33,3.33,0,0,1,.63-2.21,2.17,2.17,0,0,1,1.73-.74,2.27,2.27,0,0,1,1.74.73A3.24,3.24,0,0,1,323.51,436.81Z"/><path class="cls-3" d="M367,455.58l-1.12-3h-9.57l-1.13,3.09a11,11,0,0,1-1.12,2.43,1.78,1.78,0,0,1-1.53.63,2.2,2.2,0,0,1-1.59-.67,2.09,2.09,0,0,1-.69-1.53,3.37,3.37,0,0,1,.16-1c.11-.35.29-.84.53-1.46l6-15.6c.18-.45.38-1,.62-1.62a8.09,8.09,0,0,1,.77-1.56,3.27,3.27,0,0,1,1.08-1,3.2,3.2,0,0,1,1.65-.39,3.1,3.1,0,0,1,2.73,1.38,6.48,6.48,0,0,1,.69,1.3q.28.7.72,1.86l6.15,15.51a8,8,0,0,1,.72,2.57,2.11,2.11,0,0,1-.68,1.53,2.33,2.33,0,0,1-2.61.5,2,2,0,0,1-.67-.56,5.1,5.1,0,0,1-.59-1.08Q367.21,456.14,367,455.58Zm-9.44-6.67h7L361,439Z"/><path class="cls-3" d="M393.47,451.09a7.22,7.22,0,0,1-1.1,3.92,7.48,7.48,0,0,1-3.22,2.72,12,12,0,0,1-5,1,11.2,11.2,0,0,1-5.75-1.34,7.79,7.79,0,0,1-2.61-2.59,5.9,5.9,0,0,1-1-3.13,2.13,2.13,0,0,1,.6-1.52,2,2,0,0,1,1.53-.63,1.78,1.78,0,0,1,1.28.49,4,4,0,0,1,.89,1.46,10.07,10.07,0,0,0,1,1.92,4.09,4.09,0,0,0,1.47,1.27,5.37,5.37,0,0,0,2.49.5,5.58,5.58,0,0,0,3.45-1,3.05,3.05,0,0,0,1.32-2.52,2.73,2.73,0,0,0-.71-1.94,4.61,4.61,0,0,0-1.85-1.14c-.76-.26-1.77-.54-3-.83a22.4,22.4,0,0,1-4.25-1.42,6.91,6.91,0,0,1-2.71-2.21,5.85,5.85,0,0,1-1-3.49,6,6,0,0,1,1.06-3.52,6.61,6.61,0,0,1,3.06-2.37,12.4,12.4,0,0,1,4.72-.83,11.58,11.58,0,0,1,3.75.55,8.08,8.08,0,0,1,2.63,1.46,6.13,6.13,0,0,1,1.53,1.91,4.51,4.51,0,0,1,.48,2,2.36,2.36,0,0,1-.6,1.57,1.93,1.93,0,0,1-1.5.69,1.74,1.74,0,0,1-1.25-.41,5.82,5.82,0,0,1-.92-1.37,6.11,6.11,0,0,0-1.55-2.12,4.4,4.4,0,0,0-2.89-.77,5,5,0,0,0-3,.83,2.43,2.43,0,0,0-1.13,2,2,2,0,0,0,.39,1.25,3.17,3.17,0,0,0,1.06.9,7,7,0,0,0,1.36.59c.46.14,1.22.35,2.28.62a36.92,36.92,0,0,1,3.61,1.05,11,11,0,0,1,2.75,1.39,5.72,5.72,0,0,1,1.76,2.08A6.77,6.77,0,0,1,393.47,451.09Z"/><path class="cls-3" d="M415.41,451.09A7.14,7.14,0,0,1,414.3,455a7.37,7.37,0,0,1-3.22,2.72,11.89,11.89,0,0,1-5,1,11.17,11.17,0,0,1-5.75-1.34,7.79,7.79,0,0,1-2.61-2.59,5.92,5.92,0,0,1-1-3.13,2.14,2.14,0,0,1,.61-1.52,2,2,0,0,1,1.53-.63,1.8,1.8,0,0,1,1.28.49,4.1,4.1,0,0,1,.89,1.46,10.07,10.07,0,0,0,1,1.92,4.09,4.09,0,0,0,1.47,1.27,5.37,5.37,0,0,0,2.49.5,5.53,5.53,0,0,0,3.44-1,3,3,0,0,0,1.33-2.52,2.69,2.69,0,0,0-.72-1.94,4.5,4.5,0,0,0-1.84-1.14c-.76-.26-1.77-.54-3-.83a22.4,22.4,0,0,1-4.25-1.42,6.91,6.91,0,0,1-2.71-2.21,5.85,5.85,0,0,1-1-3.49,6.12,6.12,0,0,1,1.06-3.52,6.69,6.69,0,0,1,3.07-2.37,12.36,12.36,0,0,1,4.72-.83,11.58,11.58,0,0,1,3.75.55,8.08,8.08,0,0,1,2.63,1.46,6.28,6.28,0,0,1,1.53,1.91,4.51,4.51,0,0,1,.48,2,2.32,2.32,0,0,1-.61,1.57,1.91,1.91,0,0,1-1.5.69,1.73,1.73,0,0,1-1.24-.41,5.8,5.8,0,0,1-.93-1.37,6,6,0,0,0-1.54-2.12,4.42,4.42,0,0,0-2.89-.77,5,5,0,0,0-3,.83,2.43,2.43,0,0,0-1.13,2,2,2,0,0,0,.39,1.25,3.17,3.17,0,0,0,1.06.9,7,7,0,0,0,1.36.59c.46.14,1.22.35,2.28.62a36.92,36.92,0,0,1,3.61,1.05,11,11,0,0,1,2.74,1.39,5.65,5.65,0,0,1,1.77,2.08A6.77,6.77,0,0,1,415.41,451.09Z"/><path class="cls-3" d="M429.81,433.86a12.39,12.39,0,0,1,6.29,1.52,9.75,9.75,0,0,1,4,4.31,14.92,14.92,0,0,1,1.35,6.56,16.17,16.17,0,0,1-.74,5.07,11.08,11.08,0,0,1-2.21,3.95,9.8,9.8,0,0,1-3.63,2.55,12.9,12.9,0,0,1-4.93.89,12.73,12.73,0,0,1-5-.91,9.91,9.91,0,0,1-3.65-2.56,11,11,0,0,1-2.2-4,16.31,16.31,0,0,1-.75-5,15.83,15.83,0,0,1,.78-5.08,10.87,10.87,0,0,1,2.26-3.93,9.68,9.68,0,0,1,3.59-2.48A12.63,12.63,0,0,1,429.81,433.86Zm6.78,12.36a11.4,11.4,0,0,0-.84-4.57,6.36,6.36,0,0,0-2.38-2.93,6.77,6.77,0,0,0-6.2-.44,5.82,5.82,0,0,0-2.09,1.6,7.78,7.78,0,0,0-1.38,2.68,12.26,12.26,0,0,0-.51,3.66,12.61,12.61,0,0,0,.51,3.71,7.65,7.65,0,0,0,1.43,2.74,6,6,0,0,0,2.12,1.63,6.59,6.59,0,0,0,6-.39,6.41,6.41,0,0,0,2.44-2.89A11.26,11.26,0,0,0,436.59,446.22Z"/><path class="cls-3" d="M465.56,450.71a6.54,6.54,0,0,1-.55,2.49,9,9,0,0,1-1.74,2.62,9.17,9.17,0,0,1-3,2.09,10.82,10.82,0,0,1-4.3.8,14.69,14.69,0,0,1-3.39-.36,9.58,9.58,0,0,1-2.77-1.12,9.35,9.35,0,0,1-2.29-2,12.3,12.3,0,0,1-1.59-2.53,13.46,13.46,0,0,1-1-3,16.63,16.63,0,0,1-.33-3.38,15.23,15.23,0,0,1,.83-5.19,11.11,11.11,0,0,1,2.37-3.93,10.32,10.32,0,0,1,3.61-2.48,11.45,11.45,0,0,1,4.42-.86,10.82,10.82,0,0,1,5.09,1.17,9.18,9.18,0,0,1,3.42,2.87,5.82,5.82,0,0,1,1.19,3.24,2.13,2.13,0,0,1-.58,1.48,1.84,1.84,0,0,1-1.4.64,1.88,1.88,0,0,1-1.37-.45,5.77,5.77,0,0,1-1-1.52,7.29,7.29,0,0,0-2.19-2.67,5.29,5.29,0,0,0-3.11-.89,5.58,5.58,0,0,0-4.68,2.28,10.49,10.49,0,0,0-1.74,6.47,12.16,12.16,0,0,0,.77,4.67,5.82,5.82,0,0,0,2.18,2.77,5.88,5.88,0,0,0,3.31.92,5.7,5.7,0,0,0,3.48-1,6.29,6.29,0,0,0,2.14-3.05,4.87,4.87,0,0,1,.76-1.55,1.67,1.67,0,0,1,1.44-.6,2,2,0,0,1,1.46.6A2,2,0,0,1,465.56,450.71Z"/><path class="cls-3" d="M470,455.74V436.81a3.22,3.22,0,0,1,.66-2.21,2.19,2.19,0,0,1,1.7-.74,2.29,2.29,0,0,1,1.75.73,3.24,3.24,0,0,1,.66,2.22v18.93a3.25,3.25,0,0,1-.66,2.23,2.27,2.27,0,0,1-1.75.74,2.16,2.16,0,0,1-1.69-.75A3.24,3.24,0,0,1,470,455.74Z"/><path class="cls-3" d="M495.21,455.58l-1.12-3h-9.58l-1.12,3.09a11,11,0,0,1-1.12,2.43,1.79,1.79,0,0,1-1.53.63,2.2,2.2,0,0,1-1.59-.67,2.09,2.09,0,0,1-.69-1.53,3.37,3.37,0,0,1,.16-1c.11-.35.28-.84.53-1.46l6-15.6.62-1.62a8.09,8.09,0,0,1,.77-1.56,3.08,3.08,0,0,1,1.08-1,3.19,3.19,0,0,1,1.64-.39,3.1,3.1,0,0,1,2.74,1.38,7,7,0,0,1,.69,1.3q.29.7.72,1.86l6.15,15.51a8,8,0,0,1,.72,2.57,2.15,2.15,0,0,1-.68,1.53,2.22,2.22,0,0,1-1.65.7,1.94,1.94,0,0,1-1.64-.76,5.66,5.66,0,0,1-.58-1.08Q495.44,456.14,495.21,455.58Zm-9.44-6.67h7L489.25,439Z"/><path class="cls-3" d="M516.2,438.29H511v17.45a3.26,3.26,0,0,1-.66,2.24,2.18,2.18,0,0,1-1.7.73,2.22,2.22,0,0,1-1.73-.74,3.25,3.25,0,0,1-.67-2.23V438.29H501a2.56,2.56,0,0,1-1.81-.55,1.88,1.88,0,0,1-.6-1.45,1.86,1.86,0,0,1,.62-1.47,2.59,2.59,0,0,1,1.79-.55H516.2a2.63,2.63,0,0,1,1.84.56,1.9,1.9,0,0,1,.6,1.46,1.85,1.85,0,0,1-.61,1.45A2.62,2.62,0,0,1,516.2,438.29Z"/><path class="cls-3" d="M521.66,455.74V436.81a3.22,3.22,0,0,1,.66-2.21,2.19,2.19,0,0,1,1.7-.74,2.29,2.29,0,0,1,1.75.73,3.24,3.24,0,0,1,.66,2.22v18.93a3.25,3.25,0,0,1-.66,2.23,2.27,2.27,0,0,1-1.75.74,2.16,2.16,0,0,1-1.69-.75A3.19,3.19,0,0,1,521.66,455.74Z"/><path class="cls-3" d="M542.12,433.86a12.39,12.39,0,0,1,6.29,1.52,9.78,9.78,0,0,1,4,4.31,14.92,14.92,0,0,1,1.35,6.56,16.46,16.46,0,0,1-.74,5.07,11.25,11.25,0,0,1-2.22,3.95,9.8,9.8,0,0,1-3.63,2.55,12.9,12.9,0,0,1-4.93.89,12.73,12.73,0,0,1-5-.91,9.88,9.88,0,0,1-3.64-2.56,11.07,11.07,0,0,1-2.21-4,16.31,16.31,0,0,1-.75-5,15.83,15.83,0,0,1,.78-5.08,10.87,10.87,0,0,1,2.26-3.93,9.68,9.68,0,0,1,3.59-2.48A12.63,12.63,0,0,1,542.12,433.86Zm6.78,12.36a11.58,11.58,0,0,0-.83-4.57,6.51,6.51,0,0,0-8.59-3.37,5.91,5.91,0,0,0-2.09,1.6,7.78,7.78,0,0,0-1.38,2.68,12.27,12.27,0,0,0-.5,3.66,12.62,12.62,0,0,0,.5,3.71,7.81,7.81,0,0,0,1.43,2.74,6,6,0,0,0,2.12,1.63,6.59,6.59,0,0,0,6-.39A6.41,6.41,0,0,0,548,451,11.26,11.26,0,0,0,548.9,446.22Z"/><path class="cls-3" d="M564,436.78l9.17,14.16V436.65a3.14,3.14,0,0,1,.59-2.09,2,2,0,0,1,1.58-.7,2,2,0,0,1,1.62.7,3.14,3.14,0,0,1,.59,2.09v18.9c0,2.11-.85,3.16-2.57,3.16a3.23,3.23,0,0,1-1.15-.19,2.79,2.79,0,0,1-1-.6,6.1,6.1,0,0,1-.83-1c-.26-.36-.51-.74-.77-1.12l-8.95-14v14.07a3.1,3.1,0,0,1-.62,2.09,2.1,2.1,0,0,1-1.61.7,2,2,0,0,1-1.62-.71,3.11,3.11,0,0,1-.61-2.08V437.39a5.08,5.08,0,0,1,.26-1.85,2.63,2.63,0,0,1,1-1.21,2.72,2.72,0,0,1,1.52-.47,2.56,2.56,0,0,1,1.91.79,5.59,5.59,0,0,1,.7.94Z"/><path class="cls-3" d="M600.7,451.09a7.22,7.22,0,0,1-1.1,3.92,7.48,7.48,0,0,1-3.22,2.72,12,12,0,0,1-5,1,11.2,11.2,0,0,1-5.75-1.34,7.79,7.79,0,0,1-2.61-2.59,5.9,5.9,0,0,1-1-3.13,2.13,2.13,0,0,1,.6-1.52,2,2,0,0,1,1.53-.63,1.78,1.78,0,0,1,1.28.49,4,4,0,0,1,.89,1.46,10.07,10.07,0,0,0,1,1.92,4.09,4.09,0,0,0,1.47,1.27,5.37,5.37,0,0,0,2.49.5,5.58,5.58,0,0,0,3.45-1,3.05,3.05,0,0,0,1.32-2.52,2.73,2.73,0,0,0-.71-1.94,4.61,4.61,0,0,0-1.85-1.14c-.76-.26-1.77-.54-3-.83a22.4,22.4,0,0,1-4.25-1.42,6.91,6.91,0,0,1-2.71-2.21,5.85,5.85,0,0,1-1-3.49,6.05,6.05,0,0,1,1.07-3.52,6.61,6.61,0,0,1,3.06-2.37,12.4,12.4,0,0,1,4.72-.83,11.58,11.58,0,0,1,3.75.55,8.08,8.08,0,0,1,2.63,1.46,6.13,6.13,0,0,1,1.53,1.91,4.51,4.51,0,0,1,.48,2,2.36,2.36,0,0,1-.6,1.57,1.94,1.94,0,0,1-1.51.69,1.73,1.73,0,0,1-1.24-.41,5.82,5.82,0,0,1-.92-1.37,6.11,6.11,0,0,0-1.55-2.12,4.42,4.42,0,0,0-2.89-.77,5,5,0,0,0-3,.83,2.43,2.43,0,0,0-1.13,2,2,2,0,0,0,.39,1.25,3.17,3.17,0,0,0,1.06.9,7,7,0,0,0,1.36.59c.46.14,1.22.35,2.28.62a36.92,36.92,0,0,1,3.61,1.05,11,11,0,0,1,2.75,1.39,5.72,5.72,0,0,1,1.76,2.08A6.77,6.77,0,0,1,600.7,451.09Z"/></g></g></svg>